HIERARCHY
ROOT Hips
{
  OFFSET 0 89.5177 0.535
  CHANNELS 6 Xposition Yposition Zposition Zrotation Xrotation Yrotation
  JOINT Spine
  {
    OFFSET 12.0259 -0.162855 1.69034e-005
    CHANNELS 3 Zrotation Xrotation Yrotation
    JOINT Spine1
    {
      OFFSET 15.3169 -0.0121922 0
      CHANNELS 3 Zrotation Xrotation Yrotation
      JOINT Spine2
      {
        OFFSET 15.3176 -0.0121908 0
        CHANNELS 3 Zrotation Xrotation Yrotation
        JOINT Neck
        {
          OFFSET 19.9142 1.56338 0
          CHANNELS 3 Zrotation Xrotation Yrotation
          JOINT Head
          {
            OFFSET 6.92651 0 0
            CHANNELS 3 Zrotation Xrotation Yrotation
            End Site
            {
              OFFSET 20.7666 0 0
            }
          }
          JOINT LeftShoulder
          {
            OFFSET -6.20654 0.708824 7.28219
            CHANNELS 3 Zrotation Xrotation Yrotation
            JOINT LeftArm
            {
              OFFSET 14.108 0 -1.52588e-005
              CHANNELS 3 Zrotation Xrotation Yrotation
              JOINT LeftForeArm
              {
                OFFSET 28.5802 0 0
                CHANNELS 3 Zrotation Xrotation Yrotation
                JOINT LeftHand
                {
                  OFFSET 27.092 0 0
                  CHANNELS 3 Zrotation Xrotation Yrotation
                  End Site
                  {
                    OFFSET 9.55928 -0.186424 0.145352
                  }
                }
              }
            }
          }
          JOINT RightShoulder
          {
            OFFSET -6.20654 0.708866 -7.28218
            CHANNELS 3 Zrotation Xrotation Yrotation
            JOINT RightArm
            {
              OFFSET 14.108 0 1.52588e-005
              CHANNELS 3 Zrotation Xrotation Yrotation
              JOINT RightForeArm
              {
                OFFSET 28.5802 0 0
                CHANNELS 3 Zrotation Xrotation Yrotation
                JOINT RightHand
                {
                  OFFSET 27.092 0 0
                  CHANNELS 3 Zrotation Xrotation Yrotation
                  End Site
                  {
                    OFFSET 9.55929 -0.186417 -0.145354
                  }
                }
              }
            }
          }
        }
      }
    }
  }
  JOINT LeftUpLeg
  {
    OFFSET 0.005 -0.535 8.837
    CHANNELS 3 Zrotation Xrotation Yrotation
    JOINT LeftLeg
    {
      OFFSET 39.9035 0 0
      CHANNELS 3 Zrotation Xrotation Yrotation
      JOINT LeftFoot
      {
        OFFSET 39.6689 0 0
        CHANNELS 3 Zrotation Xrotation Yrotation
        JOINT LeftToe
        {
          OFFSET 10.1624 13.6296 0
          CHANNELS 3 Zrotation Xrotation Yrotation
          End Site
          {
            OFFSET 8.38147 0 0
          }
        }
      }
    }
  }
  JOINT RightUpLeg
  {
    OFFSET 0.005 -0.535 -8.837
    CHANNELS 3 Zrotation Xrotation Yrotation
    JOINT RightLeg
    {
      OFFSET 39.9035 0 0
      CHANNELS 3 Zrotation Xrotation Yrotation
      JOINT RightFoot
      {
        OFFSET 39.6689 0 0
        CHANNELS 3 Zrotation Xrotation Yrotation
        JOINT RightToe
        {
          OFFSET 10.1624 13.6296 0
          CHANNELS 3 Zrotation Xrotation Yrotation
          End Site
          {
            OFFSET 8.38147 0 0
          }
        }
      }
    }
  }
}
MOTION
Frames:	14
Frame Time:	0.0333333
400.501 89.5017 -1.60317 -41.2997 -88.0784 -126.063 -0.0306831 -0.129739 -1.39533 -0.0645103 -0.258222 -2.79058 -0.0645104 -0.258222 -2.79059 -8.30728e-012 -9.0191e-006 -5.27751e-005 18.4498 6.25123 -4.25834 -178.832 -8.69878 -82.3239 70.4113 -74.2884 68.0955 -1.44924 0 -0 -39.1607 -17.3324 -36.3001 -179.996 -0.191935 91.0806 59.1744 49.2688 -53.8009 -19.1334 -3.18055e-015 -0 -30.9219 36.2115 41.2313 1.29408 -3.55204 172.69 -12.5224 -7.95139e-016 -5.96354e-016 17.1931 14.1333 -12.6505 90 -1.46604e-015 -3.18055e-015 1.0145 -15.6921 172.645 -20.142 0 -0 16.0055 -2.32156 2.62086 90 -1.98785e-016 1.59028e-015 
400.468 89.5044 -1.603 -41.2904 -88.0283 -126.078 -0.0502263 -0.110429 -1.39933 -0.103129 -0.21913 -2.7986 -0.103129 -0.21913 -2.79861 -8.30728e-012 -9.0191e-006 -5.27751e-005 18.6028 6.39889 -4.29262 -178.834 -8.71093 -82.343 70.8895 -74.3423 68.5607 -1.39851 1.59028e-015 3.18055e-015 -39.3836 -17.2643 -36.309 -179.995 -0.235247 91.1005 59.1981 49.317 -53.883 -19.1117 3.18055e-015 1.59028e-015 -30.7863 36.0546 40.9952 1.32643 -3.54201 172.688 -12.535 -1.59028e-015 -0 17.1864 14.1316 -12.641 90 2.16178e-015 -0 1.06301 -15.7061 172.64 -20.105 -3.18056e-015 -0 15.9854 -2.3511 2.65376 90 1.98785e-016 -3.18055e-015 
400.444 89.5029 -1.59797 -40.5478 -87.9603 -125.347 -0.0547492 -0.104011 -1.40456 -0.112026 -0.20618 -2.80905 -0.112026 -0.20618 -2.80906 -8.30728e-012 -9.0191e-006 -5.27751e-005 18.5601 6.61883 -4.2642 -178.823 -8.77011 -82.3229 70.7935 -74.4357 68.4709 -1.4407 -3.97569e-016 4.77083e-015 -39.3427 -17.1537 -36.2211 -179.995 -0.275245 91.1403 59.2059 49.3513 -53.988 -19.1786 0 -0 -30.8035 36.046 41.0868 1.39619 -3.57446 172.673 -12.5282 -7.95139e-016 -0 17.164 14.0798 -12.5812 90 -3.78933e-016 -6.36111e-015 1.12319 -15.689 172.632 -20.1148 0 -0 15.9839 -2.36336 2.66746 90 0 -0 
400.424 89.4999 -1.59186 -39.9952 -87.8888 -124.799 -0.0519498 -0.0908459 -1.40696 -0.109206 -0.179881 -2.81547 -0.109206 -0.179881 -2.81548 -8.30748e-012 -9.0191e-006 -5.27751e-005 18.4491 6.79219 -4.26054 -178.825 -8.78003 -82.3457 70.256 -74.4204 67.9128 -1.6007 7.95139e-016 3.18055e-015 -39.3566 -17.0343 -36.0308 -179.994 -0.263452 91.2027 59.2309 49.3998 -54.0928 -19.246 0 -0 -30.6516 36.0392 40.9361 1.43675 -3.57606 172.654 -12.5776 -1.59028e-015 -5.96354e-016 17.1949 14.0764 -12.5482 90 -1.52816e-015 -6.36111e-015 1.15263 -15.6471 172.616 -20.1762 0 7.95139e-016 15.988 -2.35462 2.6577 90 0 -0 
400.411 89.4981 -1.58699 -39.8734 -87.7678 -124.678 -0.0473184 -0.0897712 -1.40794 -0.0944247 -0.177913 -2.81578 -0.0944248 -0.177913 -2.81579 -8.30708e-012 -9.0191e-006 -5.27751e-005 18.3419 7.0389 -4.35567 -178.798 -8.93391 -82.3025 70.0997 -74.605 67.6809 -1.74946 -1.59028e-015 -0 -39.1841 -16.8102 -35.5673 -179.995 -0.221629 91.2351 58.9376 49.4014 -53.9859 -19.3303 -3.18055e-015 -7.95139e-016 -30.4536 36.0764 40.802 1.52741 -3.48261 172.648 -12.6094 0 -0 17.2145 14.0879 -12.548 90 -1.37907e-015 -6.36111e-015 1.20643 -15.5663 172.6 -20.2389 3.18056e-015 -0 15.9968 -2.34484 2.64682 90 -1.98785e-016 4.77083e-015 
400.389 89.4981 -1.59012 -41.3656 -87.653 -126.184 -0.0448688 -0.0914119 -1.40205 -0.091955 -0.181229 -2.80401 -0.091955 -0.181229 -2.80402 -8.30669e-012 -9.0191e-006 -5.27751e-005 18.222 7.30087 -4.49343 -178.746 -9.21475 -82.2128 70.3408 -74.9356 67.8116 -1.95006 7.95139e-016 1.59028e-015 -38.9114 -16.6302 -35.1813 -179.996 -0.182365 91.2738 58.8023 49.4786 -53.9949 -19.4407 -9.54166e-015 -3.18055e-015 -30.0667 35.9881 40.4067 1.60414 -3.442 172.633 -12.5831 0 1.98785e-016 17.2033 14.0392 -12.5013 90 6.27414e-016 -3.18055e-015 1.22373 -15.5079 172.575 -20.2804 3.18056e-015 7.95139e-016 16.0236 -2.39682 2.70498 90 -3.97569e-016 -0 
400.378 89.4986 -1.5823 -44.3558 -87.5201 -129.198 -0.053068 -0.0701127 -1.3947 -0.107821 -0.138444 -2.7893 -0.107821 -0.138444 -2.78931 -8.30708e-012 -9.0191e-006 -5.27751e-005 18.1359 7.49219 -4.61408 -178.727 -9.46043 -82.3009 72.0603 -75.2354 69.3212 -2.05954 5.96354e-016 -0 -38.9845 -16.3521 -34.8973 -179.996 -0.16493 91.2659 58.6504 49.5758 -53.8024 -19.5136 6.36111e-015 2.38542e-015 -29.6076 36.1563 40.1032 1.65237 -3.35679 172.632 -12.5485 0 -0 17.1818 13.9779 -12.448 90 1.82012e-015 3.18055e-015 1.19776 -15.3831 172.563 -20.3283 0 -0 16.0478 -2.45719 2.77255 90 0 -0 
400.363 89.4999 -1.57282 -48.0766 -87.4128 -132.953 -0.0721879 -0.0335059 -1.3807 -0.145156 -0.0647935 -2.76128 -0.145156 -0.0647935 -2.76129 -8.30748e-012 -9.0191e-006 -5.27751e-005 18.0722 7.60788 -4.74825 -178.731 -9.60589 -82.4396 72.9128 -75.3665 69.9315 -2.10419 7.95139e-016 -1.59028e-015 -39.0188 -16.3137 -35.1025 -179.996 -0.168657 91.2837 58.647 49.7267 -53.5848 -19.4286 3.18055e-015 7.95139e-016 -29.4873 36.1257 39.9526 1.68525 -3.33209 172.635 -12.4223 -7.95139e-016 -3.97569e-016 17.0618 13.83 -12.3378 90 -1.87603e-015 3.18055e-015 1.13139 -15.255 172.563 -20.3402 0 -7.95139e-016 16.0517 -2.52318 2.8464 90 -5.96354e-016 3.18055e-015 
400.344 89.5005 -1.57004 -50.3355 -87.3217 -135.25 -0.0858398 -0.00804823 -1.35844 -0.171841 -0.0135901 -2.71671 -0.171841 -0.0135901 -2.71672 -8.30748e-012 -9.0191e-006 -5.27751e-005 18.0845 7.82314 -4.92541 -178.714 -9.80031 -82.4861 74.4226 -75.6881 71.2203 -1.91784 4.96962e-016 1.59028e-015 -39.0983 -16.3563 -35.0874 -179.996 -0.17697 91.3538 58.8447 49.8913 -53.5282 -19.3544 9.54166e-015 -1.59028e-015 -29.7045 36.0316 40.1583 1.69921 -3.30133 172.643 -12.383 0 -1.98785e-016 17.0243 13.7491 -12.2578 90 -5.98218e-015 -0 1.1071 -15.2269 172.562 -20.3243 -3.18056e-015 -7.95139e-016 16.0732 -2.62325 2.95835 90 3.97569e-016 1.59028e-015 
400.311 89.4999 -1.56406 -51.5801 -87.3156 -136.51 -0.107624 0.00799327 -1.35684 -0.215022 0.0190017 -2.71349 -0.215022 0.0190017 -2.7135 -8.30788e-012 -9.0191e-006 -5.27751e-005 18.1558 7.89668 -4.98806 -178.729 -9.87155 -82.6275 75.2229 -75.8074 71.7915 -1.84012 4.96962e-017 3.18055e-015 -39.0894 -16.4484 -35.2418 -179.997 -0.128194 91.3597 59.1266 50.0098 -53.5808 -19.3555 3.18055e-015 -7.95139e-016 -29.7673 36.0686 40.2812 1.64126 -3.32286 172.624 -12.3954 7.95139e-016 3.97569e-016 17.0245 13.7072 -12.1916 90 1.95057e-015 3.18055e-015 1.0465 -15.2697 172.527 -20.325 3.18056e-015 1.59028e-015 16.1047 -2.71787 3.06407 90 -3.97569e-016 -3.18055e-015 
400.266 89.494 -1.55429 -51.6147 -87.369 -136.527 -0.130563 0.00883019 -1.36077 -0.260875 0.0212273 -2.72134 -0.260875 0.0212273 -2.72135 -8.30629e-012 -9.0191e-006 -5.27751e-005 18.2992 8.04431 -5.02717 -178.754 -9.88238 -82.7766 76.4113 -75.8285 72.7668 -1.81713 2.01269e-015 1.59028e-015 -39.0744 -16.4237 -35.2962 -179.998 -0.0922548 91.3495 59.2816 50.0279 -53.5491 -19.3749 -3.18055e-015 -0 -29.8768 36.0499 40.3205 1.54883 -3.24527 172.585 -12.5183 7.95139e-016 5.96354e-016 17.1264 13.7881 -12.2184 90 2.17421e-016 -6.36111e-015 0.972291 -15.3887 172.448 -20.3529 6.36111e-015 -7.95139e-016 16.1841 -2.81488 3.17257 90 -7.95139e-016 -0 
400.215 89.4859 -1.5412 -50.7431 -87.4366 -135.617 -0.147327 0.00782552 -1.36177 -0.294535 0.016371 -2.72335 -0.294535 0.0163711 -2.72336 -8.30708e-012 -9.0191e-006 -5.27751e-005 18.451 8.14238 -5.00113 -178.752 -9.92597 -82.7941 76.8771 -75.8258 73.1843 -1.8104 2.13694e-015 1.59028e-015 -39.0438 -16.4021 -35.2494 -179.999 -0.0380395 91.3422 59.2714 49.99 -53.4159 -19.3455 6.36111e-015 -3.18055e-015 -29.8937 36.0646 40.349 1.49496 -3.30265 172.52 -12.5586 1.59028e-015 3.97569e-016 17.1215 13.7931 -12.1955 90 -2.00648e-015 6.36111e-015 0.921995 -15.5119 172.348 -20.3802 0 -7.95139e-016 16.284 -2.89563 3.26285 90 -3.97569e-016 -4.77083e-015 
400.153 89.4705 -1.52412 -49.8059 -87.5145 -134.62 -0.156717 0.00577608 -1.37719 -0.313399 0.0115145 -2.7542 -0.313399 0.0115145 -2.75421 -8.30708e-012 -9.0191e-006 -5.27751e-005 18.5729 8.18094 -5.00861 -178.753 -9.9172 -82.7987 76.4912 -75.7665 72.8158 -1.79426 -2.48481e-016 3.18055e-015 -38.9593 -16.4347 -35.2865 -179.999 -0.0496266 91.3401 59.5944 49.9906 -53.5969 -19.2363 0 2.38542e-015 -29.9483 36.0963 40.4062 1.36457 -3.29179 172.425 -12.7451 0 1.59028e-015 17.2575 13.8876 -12.1939 90 6.83322e-016 -3.18055e-015 0.83146 -15.6588 172.211 -20.4648 0 -1.59028e-015 16.4645 -2.99189 3.37085 90 -7.95139e-016 -0 
400.088 89.4525 -1.50435 -48.2259 -87.5821 -132.971 -0.156799 0.00412887 -1.38765 -0.313446 0.0125224 -2.77511 -0.313446 0.0125224 -2.77512 -8.30629e-012 -9.0191e-006 -5.27751e-005 18.5987 8.13104 -5.02679 -178.745 -9.90244 -82.7389 75.9594 -75.6784 72.3958 -1.7653 1.98785e-016 -0 -38.8469 -16.5635 -35.3498 -179.999 -0.0560048 91.3369 59.8157 49.9918 -53.7071 -19.07 9.54166e-015 -1.59028e-015 -29.951 36.1391 40.4799 1.26101 -3.32025 172.312 -12.9136 7.95139e-016 1.98785e-016 17.37 13.948 -12.1586 90 -6.21202e-017 -0 0.750471 -15.7867 172.069 -20.5749 -6.36111e-015 -7.95139e-016 16.6406 -3.04125 3.42642 90 -1.98785e-016 -1.59028e-015 
